External Loads File
version=1
nRows=54
nColumns=13
Range=5.000000e-03-10 seconds
endheader
time 	forceRightX 	forceRightY 	forceRightZ 	pointRightX 	pointRightY 	pointRightZ 	forceLeftX 	forceLeftY 	forceLeftZ 	pointLeftX 	pointLeftY 	pointLeftZ 		
0.005000 69.529802 451.743048 -0.000000 0.100071 0.290219 -0.142724 -312.630499 363.167651 -0.000000 0.411386 0.360136 -0.371256
0.010000 69.532958 451.120228 -0.000000 0.100089 0.290250 -0.142718 -312.930763 362.635607 -0.000000 0.411367 0.360096 -0.371253
0.015000 69.620826 450.463015 -0.000000 0.100091 0.290293 -0.142709 -313.106376 362.117469 -0.000000 0.411352 0.360056 -0.371243
0.020000 69.788973 449.763251 -0.000000 0.100069 0.290331 -0.142697 -313.130181 361.604236 -0.000000 0.411329 0.360013 -0.371240
0.025000 69.761611 449.054379 -0.000000 0.100125 0.290283 -0.142636 -313.197493 360.889582 -0.000000 0.411317 0.360068 -0.371223
0.030000 70.129885 448.233574 -0.000000 0.100111 0.290325 -0.142607 -312.817666 360.369815 -0.000000 0.411277 0.359983 -0.371217
0.035000 70.555488 447.338189 -0.000000 0.100110 0.290404 -0.142591 -312.250800 359.804658 -0.000000 0.411246 0.359915 -0.371207
0.040000 70.931677 446.367780 -0.000000 0.100121 0.290451 -0.142657 -311.572987 359.136250 -0.000000 0.411229 0.359838 -0.371205
0.045000 71.282515 445.307743 -0.000000 0.100108 0.290542 -0.142630 -310.765191 358.422726 -0.000000 0.411208 0.359766 -0.371199
0.050000 71.508442 444.181861 -0.000000 0.100109 0.290615 -0.142597 -309.922676 357.653489 -0.000000 0.411206 0.359668 -0.371181
0.055000 71.565265 443.028847 -0.000000 0.100132 0.290704 -0.142571 -309.114976 356.853946 -0.000000 0.411208 0.359583 -0.371170
0.060000 71.400778 441.902339 -0.000000 0.100174 0.290758 -0.142562 -308.431534 356.025701 -0.000000 0.411219 0.359511 -0.371150
0.065000 71.127024 440.826966 -0.000000 0.100214 0.290824 -0.142540 -307.822349 355.269118 -0.000000 0.411227 0.359434 -0.371140
0.070000 70.682252 439.845193 -0.000000 0.100268 0.290867 -0.142525 -307.368176 354.549004 -0.000000 0.411242 0.359386 -0.371126
0.075000 70.182916 438.959081 -0.000000 0.100338 0.290886 -0.142535 -307.016737 353.933392 -0.000000 0.411263 0.359297 -0.371107
0.080000 69.515786 438.195086 -0.000000 0.100406 0.290893 -0.142557 -306.918712 353.307343 -0.000000 0.411286 0.359296 -0.371085
0.085000 68.891708 437.520135 -0.000000 0.100490 0.290892 -0.142588 -306.972436 352.764478 -0.000000 0.411314 0.359264 -0.371070
0.090000 68.386009 436.920208 -0.000000 0.100526 0.290910 -0.142587 -307.173965 352.292040 -0.000000 0.411337 0.359230 -0.371048
0.095000 67.992817 436.387590 -0.000000 0.100585 0.290914 -0.142601 -307.544374 351.819817 -0.000000 0.411383 0.359202 -0.371032
0.100000 67.890388 435.875071 -0.000000 0.100630 0.290951 -0.142611 -307.902770 351.415548 -0.000000 0.411436 0.359128 -0.371040
0.105000 67.961626 435.372042 -0.000000 0.100648 0.290994 -0.142607 -308.256154 350.956367 -0.000000 0.411497 0.359080 -0.371028
0.110000 68.208213 434.842608 -0.000000 0.100667 0.291033 -0.142593 -308.471109 350.440120 -0.000000 0.411559 0.359015 -0.371018
0.115000 68.580040 434.253936 -0.000000 0.100698 0.291102 -0.142597 -308.431911 349.875391 -0.000000 0.411624 0.358938 -0.371020
0.120000 68.962036 433.584039 -0.000000 0.100727 0.291161 -0.142607 -308.095282 349.251343 -0.000000 0.411695 0.358815 -0.371008
0.125000 69.141746 432.842572 -0.000000 0.100746 0.291230 -0.142601 -307.573544 348.470029 -0.000000 0.411764 0.358756 -0.371026
0.130000 69.160978 432.028456 -0.000000 0.100795 0.291282 -0.142619 -306.882817 347.561733 -0.000000 0.411832 0.358677 -0.371045
0.135000 69.017200 431.168471 -0.000000 0.100862 0.291331 -0.142658 -306.142564 346.488383 -0.000000 0.411902 0.358618 -0.371047
0.140000 68.747792 430.283187 -0.000000 0.100917 0.291374 -0.142679 -305.428900 345.249942 -0.000000 0.411980 0.358575 -0.371044
0.145000 68.394780 429.386609 -0.000000 0.100978 0.291409 -0.142717 -304.770145 343.879995 -0.000000 0.412071 0.358519 -0.371055
0.150000 67.956804 428.496680 -0.000000 0.101049 0.291447 -0.142738 -304.206903 342.404636 -0.000000 0.412151 0.358470 -0.371049
0.155000 67.488732 427.612604 -0.000000 0.101119 0.291483 -0.142740 -303.734173 340.905788 -0.000000 0.412243 0.358405 -0.371047
0.160000 66.976201 426.723573 -0.000000 0.101195 0.291516 -0.142755 -303.392913 339.427888 -0.000000 0.412335 0.358350 -0.371023
0.165000 66.507854 425.783309 -0.000000 0.101267 0.291571 -0.142749 -303.117165 338.088621 -0.000000 0.412436 0.358279 -0.371013
0.170000 66.034788 424.762016 -0.000000 0.101329 0.291620 -0.142754 -302.936745 336.887340 -0.000000 0.412537 0.358218 -0.370995
0.175000 65.719297 423.601301 -0.000000 0.101386 0.291731 -0.142747 -302.717542 335.945038 -0.000000 0.412646 0.358128 -0.370984
0.180000 65.341217 422.310188 -0.000000 0.101438 0.291798 -0.142710 -302.624963 335.090049 -0.000000 0.412748 0.358084 -0.370974
0.185000 65.064685 420.853481 -0.000000 0.101494 0.291846 -0.142725 -302.502408 334.412377 -0.000000 0.412849 0.357989 -0.370971
0.190000 64.769751 419.261625 -0.000000 0.101583 0.291890 -0.142807 -302.405162 333.787981 -0.000000 0.412942 0.357944 -0.370991
0.195000 64.597604 417.544506 -0.000000 0.101620 0.291960 -0.142809 -302.178914 333.276186 -0.000000 0.413034 0.357881 -0.370972
0.200000 64.392219 415.771253 -0.000000 0.101670 0.291997 -0.142812 -301.909420 332.727838 -0.000000 0.413122 0.357831 -0.370971
0.205000 64.244758 413.980609 -0.000000 0.101722 0.292066 -0.142830 -301.486352 332.189541 -0.000000 0.413210 0.357775 -0.370963
0.210000 64.007206 412.252536 -0.000000 0.101771 0.292095 -0.142827 -300.996920 331.553437 -0.000000 0.413271 0.357738 -0.370982
0.215000 63.736024 410.631689 -0.000000 0.101834 0.292144 -0.142850 -300.387838 330.872908 -0.000000 0.413333 0.357732 -0.370979
0.220000 63.403061 409.158118 -0.000000 0.101890 0.292150 -0.142863 -299.701616 330.148002 -0.000000 0.413381 0.357710 -0.370986
0.225000 62.978429 407.844842 -0.000000 0.101957 0.292138 -0.142851 -298.995418 329.379256 -0.000000 0.413426 0.357713 -0.370980
0.230000 62.503988 406.670135 -0.000000 0.102021 0.292111 -0.142858 -298.269097 328.608006 -0.000000 0.413464 0.357714 -0.370983
0.235000 61.994681 405.605435 -0.000000 0.102070 0.292082 -0.142859 -297.548143 327.831020 -0.000000 0.413493 0.357738 -0.370978
0.240000 61.555392 404.612945 -0.000000 0.102139 0.292070 -0.142879 -296.803423 327.080312 -0.000000 0.413522 0.357752 -0.370986
0.245000 61.149699 403.689420 -0.000000 0.102181 0.292018 -0.142887 -296.130398 326.267063 -0.000000 0.413542 0.357787 -0.370986
0.250000 60.970249 402.802687 -0.000000 0.102217 0.292003 -0.142867 -295.415040 325.483675 -0.000000 0.413567 0.357803 -0.370989
0.255000 60.888303 401.958871 -0.000000 0.102255 0.291968 -0.142857 -294.761587 324.622591 -0.000000 0.413580 0.357849 -0.371000
0.260000 60.916345 401.124864 -0.000000 0.102278 0.291899 -0.142868 -294.135941 323.715727 -0.000000 0.413600 0.357882 -0.370998
0.265000 60.952940 400.278583 -0.000000 0.102315 0.291820 -0.142889 -293.598539 322.725169 -0.000000 0.413618 0.357955 -0.370995
0.270000 61.085880 399.378443 -0.000000 0.102342 0.291773 -0.142883 -293.069020 321.742011 -0.000000 0.413637 0.358012 -0.371007
